<?xml version="1.0" encoding="UTF-8"?> <svg xmlns="http://www.w3.org/2000/svg" viewBox="0 0 589.1 404.2"><defs><style>.cls-1{fill:#3a589e;}.cls-2{fill:#fff;}.cls-3{fill:#3a58a0;}.cls-4{fill:#3a589f;}</style></defs><g id="INFO_02"><rect class="cls-1" x="283.69" y="116.65" width="3.08" height="171.69"></rect><line class="cls-2" x1="158.94" y1="129.58" x2="411.52" y2="275.41"></line><rect class="cls-1" x="283.69" y="56.66" width="3.08" height="291.66" transform="translate(-32.75 348.27) rotate(-60)"></rect><line class="cls-2" x1="158.94" y1="275.41" x2="411.52" y2="129.58"></line><rect class="cls-1" x="139.4" y="200.95" width="291.66" height="3.08" transform="translate(-63.03 169.71) rotate(-29.99)"></rect><rect class="cls-2" x="148.66" y="137.84" width="273.14" height="129.32" rx="64.66"></rect><path class="cls-1" d="M357.14,268.69H213.32a66.2,66.2,0,1,1,0-132.39H357.14a66.2,66.2,0,1,1,0,132.39ZM213.32,139.38a63.12,63.12,0,1,0,0,126.23H357.14a63.12,63.12,0,1,0,0-126.23Z"></path><path d="M490.22,371.86h1.27v8.52h5l-.18,1.09h-6.1Z"></path><path d="M498.52,378.18c0,1.43.73,2.45,1.91,2.45a1.61,1.61,0,0,0,1.69-1.09h1.23a2.88,2.88,0,0,1-3,2.1c-2.19,0-3.09-1.8-3.09-3.59,0-2.09,1.05-3.74,3.18-3.74s3,1.8,3,3.3c0,.22,0,.39,0,.57Zm3.72-.84c0-1.16-.59-2.08-1.78-2.08s-1.78.85-1.9,2.08Z"></path><path d="M505.82,378.18c0,1.43.73,2.45,1.91,2.45a1.61,1.61,0,0,0,1.69-1.09h1.23a2.88,2.88,0,0,1-3,2.1c-2.19,0-3.09-1.8-3.09-3.59,0-2.09,1-3.74,3.18-3.74s3,1.8,3,3.3c0,.22,0,.39,0,.57Zm3.72-.84c0-1.16-.59-2.08-1.78-2.08s-1.78.85-1.9,2.08Z"></path><path d="M512.94,374.47c.87,3.29,1.36,5.16,1.49,5.88h0c.13-.65.62-2.4,1.62-5.88h1.18c1.09,4,1.43,5.11,1.54,5.74h0c.18-.74.46-1.79,1.55-5.74h1.23l-2.16,7H518.1c-.68-2.55-1.35-4.91-1.5-5.67h0c-.12.76-.74,2.9-1.53,5.67H513.7l-2-7Z"></path><path d="M527.88,379.94a10.91,10.91,0,0,0,.1,1.53h-1.16a3.64,3.64,0,0,1-.11-.91,2.23,2.23,0,0,1-2.17,1.08,2.12,2.12,0,0,1-2.36-2.14c0-1.56,1.23-2.28,3.31-2.28h1.19v-.59c0-.63-.19-1.37-1.5-1.37-1.16,0-1.37.58-1.49,1.12h-1.18c.1-1,.69-2.07,2.71-2.07,1.71,0,2.66.7,2.66,2.29Zm-1.18-1.88h-1.14c-1.39,0-2.14.39-2.14,1.37a1.23,1.23,0,0,0,1.37,1.25c1.68,0,1.91-1.13,1.91-2.4v-.22Z"></path><path d="M530.3,374.47c1.13,3.36,1.75,5.21,1.94,5.92h0c.22-.8.71-2.4,1.86-5.92h1.22l-2.52,7.32c-.7,2-1.24,2.57-2.66,2.57a7.42,7.42,0,0,1-.76-.05v-1l.58,0c.88,0,1.21-.38,1.63-1.54L529,374.47Z"></path><path d="M536.87,371.86h1.27v4h5v-4h1.29v9.61h-1.29V377h-5v4.5h-1.27Z"></path><path d="M547.35,378.18c0,1.43.73,2.45,1.92,2.45a1.61,1.61,0,0,0,1.69-1.09h1.23a2.88,2.88,0,0,1-3,2.1c-2.19,0-3.09-1.8-3.09-3.59,0-2.09,1.05-3.74,3.17-3.74,2.27,0,3,1.8,3,3.3a5.06,5.06,0,0,1,0,.57Zm3.73-.84c0-1.16-.59-2.08-1.78-2.08s-1.78.85-1.9,2.08Z"></path><path d="M553.85,376.38c0-1,0-1.54,0-1.91H555c0,.2,0,.75,0,1.42a2.42,2.42,0,0,1,2.34-1.58v1.2c-1.43,0-2.34.8-2.34,2.56v3.4h-1.22v-5.09Z"></path><path d="M558.18,374.47h1.22V372.4h1.2v2.07h1.55v1H560.6v4.1c0,.69.17,1,.8,1a3.31,3.31,0,0,0,.61-.06v.91a3.26,3.26,0,0,1-1,.13c-1.09,0-1.56-.57-1.56-1.73v-4.39h-1.22Z"></path><path d="M563.11,380.49l4-5h-3.82v-1h5.2v1l-4,5h4.17l-.2,1h-5.41v-1Z"></path><path d="M247.43,36.11a1.5,1.5,0,0,0,.47.59,3.7,3.7,0,0,0,.92.48,11.23,11.23,0,0,0,1.52.4,6.62,6.62,0,0,1,2.76,1.16,2.47,2.47,0,0,1,.89,2,3,3,0,0,1-.28,1.32,3,3,0,0,1-.79,1,3.62,3.62,0,0,1-1.2.64,5,5,0,0,1-1.54.22,6.67,6.67,0,0,1-2.45-.43,7.05,7.05,0,0,1-2.12-1.34l.78-.93a6.67,6.67,0,0,0,1.78,1.19,5.11,5.11,0,0,0,2.06.39,2.85,2.85,0,0,0,1.82-.53,1.67,1.67,0,0,0,.68-1.39,1.73,1.73,0,0,0-.13-.71,1.5,1.5,0,0,0-.45-.57,3.18,3.18,0,0,0-.89-.47,11.41,11.41,0,0,0-1.45-.4,12.32,12.32,0,0,1-1.68-.48,4.13,4.13,0,0,1-1.18-.66,2.36,2.36,0,0,1-.69-.89,3,3,0,0,1-.22-1.22,2.77,2.77,0,0,1,1-2.2,3.48,3.48,0,0,1,1.17-.64,4.36,4.36,0,0,1,1.47-.24,6.34,6.34,0,0,1,2.15.34,6.74,6.74,0,0,1,1.79,1l-.74,1a5.32,5.32,0,0,0-1.58-.93,4.81,4.81,0,0,0-1.65-.29,3.12,3.12,0,0,0-1,.15,2.41,2.41,0,0,0-.75.38,1.64,1.64,0,0,0-.65,1.3A2,2,0,0,0,247.43,36.11Z"></path><path d="M257.94,41.45a1.28,1.28,0,0,0,.39,1.07,1.52,1.52,0,0,0,1,.31,2.35,2.35,0,0,0,.6-.07,2.62,2.62,0,0,0,.6-.22v1.05a2.84,2.84,0,0,1-.68.27,3.35,3.35,0,0,1-.81.09,3.48,3.48,0,0,1-.93-.13,1.84,1.84,0,0,1-.74-.41,1.81,1.81,0,0,1-.49-.73,2.85,2.85,0,0,1-.18-1.07v-5h-1.15V35.53h1.15V33h1.23v2.5h2.63v1.09h-2.63Z"></path><path d="M270.29,41.33a4.2,4.2,0,0,1-.91,1.38,4.13,4.13,0,0,1-1.37.94,4.34,4.34,0,0,1-1.73.34,4.18,4.18,0,0,1-1.71-.34,4.33,4.33,0,0,1-1.36-.93,4.13,4.13,0,0,1-.9-1.37,4.38,4.38,0,0,1-.32-1.66,4.47,4.47,0,0,1,.32-1.67,4.32,4.32,0,0,1,.9-1.39,4.37,4.37,0,0,1,6.19,0,4.36,4.36,0,0,1,.9,1.36,4.47,4.47,0,0,1,.32,1.67A4.29,4.29,0,0,1,270.29,41.33Zm-1.17-2.91a3.06,3.06,0,0,0-.65-1,3.18,3.18,0,0,0-1-.69,2.93,2.93,0,0,0-1.22-.26,3.07,3.07,0,0,0-1.23.25,2.65,2.65,0,0,0-.95.69,3.1,3.1,0,0,0-.62,1,3.42,3.42,0,0,0-.22,1.25,3.28,3.28,0,0,0,.23,1.26,3.07,3.07,0,0,0,1.61,1.71,2.88,2.88,0,0,0,1.21.25,3.07,3.07,0,0,0,1.23-.24,2.79,2.79,0,0,0,1-.68,3.19,3.19,0,0,0,.63-1,3.48,3.48,0,0,0,.22-1.26A3.56,3.56,0,0,0,269.12,38.42Z"></path><path d="M274.07,43.8h-1.23V35.53h1.23v2.16a4.41,4.41,0,0,1,.56-.94,3.9,3.9,0,0,1,.77-.75,3.31,3.31,0,0,1,.94-.47,3.35,3.35,0,0,1,1.11-.14v1.32h-.1a3.38,3.38,0,0,0-1.27.24,2.9,2.9,0,0,0-1.05.72,3.37,3.37,0,0,0-.7,1.2,4.82,4.82,0,0,0-.26,1.64Z"></path><path d="M280,41.31a2.79,2.79,0,0,0,.66.88,2.65,2.65,0,0,0,.89.55,3,3,0,0,0,1,.18,3.08,3.08,0,0,0,1.48-.32,4.14,4.14,0,0,0,1.13-.85l.77.69a5,5,0,0,1-1.43,1.13,4.21,4.21,0,0,1-2,.42,4.08,4.08,0,0,1-2.92-1.19,4.22,4.22,0,0,1-.89-1.37,4.56,4.56,0,0,1-.33-1.76,4.67,4.67,0,0,1,.29-1.68,4.17,4.17,0,0,1,.83-1.38,3.79,3.79,0,0,1,1.25-.92,3.84,3.84,0,0,1,1.59-.34,3.76,3.76,0,0,1,1.64.35,3.6,3.6,0,0,1,1.21.93A4.1,4.1,0,0,1,286,38a5.57,5.57,0,0,1,.26,1.71v.17a1.49,1.49,0,0,1,0,.21h-6.54A3.31,3.31,0,0,0,280,41.31Zm5-2.1a4.74,4.74,0,0,0-.23-1.07,3.29,3.29,0,0,0-.51-.9,2.54,2.54,0,0,0-.8-.61,2.34,2.34,0,0,0-1.09-.24,2.4,2.4,0,0,0-1,.22,2.49,2.49,0,0,0-.81.59,3.23,3.23,0,0,0-.57.89,3.69,3.69,0,0,0-.29,1.12Z"></path><path d="M292.74,35.56v1.06h-2.6V43.8H288.9V36.62h-1.13V35.55h1.13v-.72a3,3,0,0,1,.65-2.07,2.38,2.38,0,0,1,1.85-.7,4,4,0,0,1,.74,0,2.69,2.69,0,0,1,.62.16v1.07a4.48,4.48,0,0,0-.61-.15,2.74,2.74,0,0,0-.59-.06c-1,0-1.44.59-1.44,1.76v.67Z"></path><path d="M295.54,43.8h-1.23V35.53h1.23v2.16a4.41,4.41,0,0,1,.56-.94,3.9,3.9,0,0,1,.77-.75,3.24,3.24,0,0,1,.95-.47,3.29,3.29,0,0,1,1.1-.14v1.32h-.1a3.41,3.41,0,0,0-1.27.24,2.9,2.9,0,0,0-1.05.72,3.52,3.52,0,0,0-.7,1.2,4.82,4.82,0,0,0-.26,1.64Z"></path><path d="M308.22,41.33a4.34,4.34,0,0,1-.9,1.38,4.07,4.07,0,0,1-1.38.94,4.52,4.52,0,0,1-3.44,0,4.44,4.44,0,0,1-1.36-.93,4.11,4.11,0,0,1-.89-1.37,4.2,4.2,0,0,1-.32-1.66,4.43,4.43,0,0,1,1.21-3.06,4.37,4.37,0,0,1,1.37-.93,4.33,4.33,0,0,1,1.74-.35,4.26,4.26,0,0,1,1.72.35,4.37,4.37,0,0,1,1.37.93,4.17,4.17,0,0,1,.89,1.36,4.45,4.45,0,0,1,0,3.34Zm-1.16-2.91a3.4,3.4,0,0,0-.65-1,3.22,3.22,0,0,0-1-.69,2.89,2.89,0,0,0-1.21-.26,3.16,3.16,0,0,0-1.24.25,2.74,2.74,0,0,0-1,.69,3.26,3.26,0,0,0-.61,1,3.43,3.43,0,0,0-.23,1.25,3.48,3.48,0,0,0,.23,1.26,3.11,3.11,0,0,0,.64,1,3.18,3.18,0,0,0,1,.69,2.93,2.93,0,0,0,1.22.25,3.07,3.07,0,0,0,1.23-.24,3,3,0,0,0,1-.68,3.16,3.16,0,0,0,.62-1,3.48,3.48,0,0,0,.23-1.26A3.56,3.56,0,0,0,307.06,38.42Z"></path><path d="M312,43.8h-1.23V35.53H312V37a3.82,3.82,0,0,1,1.09-1.14,2.91,2.91,0,0,1,1.74-.48,3.52,3.52,0,0,1,1.34.24,2.87,2.87,0,0,1,1,.68,3.07,3.07,0,0,1,.62,1,3.9,3.9,0,0,1,.22,1.35V43.8h-1.23V39a2.61,2.61,0,0,0-.6-1.82,2.13,2.13,0,0,0-1.69-.68,2.72,2.72,0,0,0-1,.19,2.34,2.34,0,0,0-.79.53,2.39,2.39,0,0,0-.52.82,3,3,0,0,0-.18,1.06Z"></path><path d="M322.3,41.45a1.28,1.28,0,0,0,.38,1.07,1.54,1.54,0,0,0,1,.31,2.35,2.35,0,0,0,.6-.07,2.62,2.62,0,0,0,.6-.22v1.05a2.84,2.84,0,0,1-.68.27,3.35,3.35,0,0,1-.81.09,3.48,3.48,0,0,1-.93-.13,1.84,1.84,0,0,1-1.23-1.14,2.85,2.85,0,0,1-.18-1.07v-5h-1.15V35.53h1.15V33h1.24v2.5h2.62v1.09H322.3Z"></path><path d="M494.06,286.77h-6.78v4h6.06v1.16h-6.06v4.88H486v-11.2h8Z"></path><path d="M496.34,286.73v-1.36h1.4v1.36Zm.08,10.08v-8.27h1.23v8.27Z"></path><path d="M500.62,296.81V285.13h1.24v11.68Z"></path><path d="M506.38,294.46a1.29,1.29,0,0,0,.39,1.07,1.57,1.57,0,0,0,1,.3,2.93,2.93,0,0,0,.61-.06,3,3,0,0,0,.59-.23v1.06a2.66,2.66,0,0,1-.68.26,3.26,3.26,0,0,1-.8.09,3.12,3.12,0,0,1-.93-.13,1.83,1.83,0,0,1-.75-.41,1.79,1.79,0,0,1-.48-.72,2.89,2.89,0,0,1-.18-1.07v-5H504v-1.08h1.15V286h1.23v2.5H509v1.08h-2.63Z"></path><path d="M512,294.32a3,3,0,0,0,.66.88,2.94,2.94,0,0,0,1.94.73,3.23,3.23,0,0,0,1.48-.32,4.54,4.54,0,0,0,1.12-.85l.77.69a5.13,5.13,0,0,1-1.42,1.13,4.25,4.25,0,0,1-2,.42,4.34,4.34,0,0,1-1.6-.31,3.93,3.93,0,0,1-1.31-.88,4.18,4.18,0,0,1-.9-1.37,4.56,4.56,0,0,1-.33-1.76,4.73,4.73,0,0,1,.3-1.69,4,4,0,0,1,.82-1.37,3.73,3.73,0,0,1,1.26-.92,3.63,3.63,0,0,1,1.59-.34,3.71,3.71,0,0,1,1.63.34,3.54,3.54,0,0,1,1.22.94A4,4,0,0,1,518,291a5.61,5.61,0,0,1,.25,1.71v.18a1.62,1.62,0,0,1,0,.21h-6.55A3.59,3.59,0,0,0,512,294.32Zm5-2.1a4.24,4.24,0,0,0-.23-1.08,2.69,2.69,0,0,0-.51-.89,2.34,2.34,0,0,0-1.88-.85,2.29,2.29,0,0,0-1,.22,2.72,2.72,0,0,0-.81.59,3.09,3.09,0,0,0-.57.89,3.92,3.92,0,0,0-.29,1.12Z"></path><path d="M521.65,296.81h-1.23v-8.27h1.23v2.16a4.1,4.1,0,0,1,.56-.95A3.8,3.8,0,0,1,523,289a3.12,3.12,0,0,1,.95-.47,3.29,3.29,0,0,1,1.1-.15v1.33h-.09a3.34,3.34,0,0,0-1.27.24,2.82,2.82,0,0,0-1,.72,3.43,3.43,0,0,0-.71,1.19,4.87,4.87,0,0,0-.25,1.64Z"></path><path d="M532.34,295.54a2.32,2.32,0,0,1-.62.77,2.75,2.75,0,0,1-.93.49,3.92,3.92,0,0,1-1.16.17,5.3,5.3,0,0,1-1.81-.33,5.7,5.7,0,0,1-1.61-.89l.62-.88a6,6,0,0,0,1.4.79,4.18,4.18,0,0,0,1.46.27,2.07,2.07,0,0,0,1.24-.35,1.14,1.14,0,0,0,.48-1v0a.83.83,0,0,0-.17-.52,1.51,1.51,0,0,0-.46-.4,3.36,3.36,0,0,0-.66-.29q-.37-.14-.78-.24c-.32-.1-.64-.2-1-.32a4.2,4.2,0,0,1-.88-.42,2.17,2.17,0,0,1-.64-.64,1.75,1.75,0,0,1-.24-1v0a2.37,2.37,0,0,1,.2-1,2.26,2.26,0,0,1,.59-.75,2.63,2.63,0,0,1,.89-.48,3.77,3.77,0,0,1,1.13-.17,5,5,0,0,1,1.55.25,5.86,5.86,0,0,1,1.43.66l-.56.93a5.84,5.84,0,0,0-1.21-.58,3.65,3.65,0,0,0-1.24-.22,1.89,1.89,0,0,0-1.17.34,1.06,1.06,0,0,0-.43.86v0a.79.79,0,0,0,.18.51,1.38,1.38,0,0,0,.47.37,3.57,3.57,0,0,0,.68.29l.8.26c.32.09.64.2,1,.32a3.67,3.67,0,0,1,.86.44,2.38,2.38,0,0,1,.61.66,1.76,1.76,0,0,1,.23.95v0A2.25,2.25,0,0,1,532.34,295.54Z"></path><path d="M238,371.25a5.47,5.47,0,0,1-1,.62,6.45,6.45,0,0,1-1.17.4,6,6,0,0,1-1.39.14,5.67,5.67,0,0,1-2.24-.44,5.45,5.45,0,0,1-1.78-1.23,5.82,5.82,0,0,1-1.18-1.83,6,6,0,0,1,1.18-6.38,5.57,5.57,0,0,1,4.06-1.7,6.51,6.51,0,0,1,1.39.13,5.06,5.06,0,0,1,1.14.36,5,5,0,0,1,1,.56,9.65,9.65,0,0,1,.86.72l-.86.93a7.07,7.07,0,0,0-1.55-1.1,4.15,4.15,0,0,0-2-.43,4.17,4.17,0,0,0-3.1,1.33,4.45,4.45,0,0,0-.91,1.46,4.89,4.89,0,0,0-.33,1.81,5,5,0,0,0,.33,1.83,4.5,4.5,0,0,0,.91,1.47,4.42,4.42,0,0,0,1.38,1,4.27,4.27,0,0,0,1.72.36,4.32,4.32,0,0,0,2-.43,6.7,6.7,0,0,0,1.63-1.19l.84.82A8.54,8.54,0,0,1,238,371.25Z"></path><path d="M242.1,372.22h-1.23V364h1.23v2.16a4.32,4.32,0,0,1,.56-.95,3.86,3.86,0,0,1,.77-.74,3.19,3.19,0,0,1,.94-.47,3.05,3.05,0,0,1,1.1-.14v1.32h-.09a3.38,3.38,0,0,0-1.27.24,2.9,2.9,0,0,0-1.05.72,3.38,3.38,0,0,0-.71,1.2,4.83,4.83,0,0,0-.25,1.64Z"></path><path d="M248.07,369.73a2.92,2.92,0,0,0,.65.88,3,3,0,0,0,.9.55,3,3,0,0,0,1,.18,3.23,3.23,0,0,0,1.48-.32,4.3,4.3,0,0,0,1.13-.85l.76.69a5,5,0,0,1-1.42,1.13,4.21,4.21,0,0,1-2,.42,4.07,4.07,0,0,1-1.6-.31,4,4,0,0,1-1.32-.88,4.24,4.24,0,0,1-.9-1.37,4.56,4.56,0,0,1-.33-1.76,4.68,4.68,0,0,1,.3-1.68,4.32,4.32,0,0,1,.82-1.38,3.73,3.73,0,0,1,1.26-.92,3.78,3.78,0,0,1,1.59-.34,3.72,3.72,0,0,1,1.63.35,3.64,3.64,0,0,1,1.22.93,4.1,4.1,0,0,1,.75,1.4,5.57,5.57,0,0,1,.26,1.71v.17a1.49,1.49,0,0,1,0,.21h-6.54A3.31,3.31,0,0,0,248.07,369.73Zm5-2.1a4.25,4.25,0,0,0-.23-1.07,2.84,2.84,0,0,0-.51-.9,2.5,2.5,0,0,0-.79-.61,2.39,2.39,0,0,0-1.09-.24,2.36,2.36,0,0,0-1,.22,2.64,2.64,0,0,0-.82.59,3.23,3.23,0,0,0-.57.89,3.61,3.61,0,0,0-.28,1.12Z"></path><path d="M258.12,365.09a8.25,8.25,0,0,0-1.17.44l-.37-1A7.53,7.53,0,0,1,258,364a6.58,6.58,0,0,1,1.62-.18,3.68,3.68,0,0,1,2.6.84,3.21,3.21,0,0,1,.92,2.48v5.06h-1.19V371a4,4,0,0,1-1.16,1,3.59,3.59,0,0,1-1.83.43,4.34,4.34,0,0,1-1.13-.16,3.06,3.06,0,0,1-1-.49,2.48,2.48,0,0,1-.7-.81,2.28,2.28,0,0,1-.27-1.13,2.58,2.58,0,0,1,.26-1.17,2.23,2.23,0,0,1,.73-.83,3.31,3.31,0,0,1,1.12-.52,5.78,5.78,0,0,1,1.43-.17,9.35,9.35,0,0,1,1.39.09,10.16,10.16,0,0,1,1.15.26v-.29a2.1,2.1,0,0,0-.65-1.69,2.63,2.63,0,0,0-1.81-.56A5.08,5.08,0,0,0,258.12,365.09Zm-.39,3.4a1.48,1.48,0,0,0-.62,1.27,1.45,1.45,0,0,0,.16.7,1.76,1.76,0,0,0,.46.52,2.27,2.27,0,0,0,.66.33,2.9,2.9,0,0,0,.79.11,3.22,3.22,0,0,0,1.08-.17,2.78,2.78,0,0,0,.87-.46,2.12,2.12,0,0,0,.59-.71,1.82,1.82,0,0,0,.22-.9v-.8c-.31-.08-.66-.16-1.06-.24a8,8,0,0,0-1.37-.11A2.93,2.93,0,0,0,257.73,368.49Z"></path><path d="M267.31,369.87a1.28,1.28,0,0,0,.39,1.07,1.58,1.58,0,0,0,1,.31,2.9,2.9,0,0,0,.6-.07,3.19,3.19,0,0,0,.6-.22V372a2.84,2.84,0,0,1-.68.27,3.35,3.35,0,0,1-.81.09,3.48,3.48,0,0,1-.93-.13,1.84,1.84,0,0,1-.74-.41,1.92,1.92,0,0,1-.49-.73,2.85,2.85,0,0,1-.18-1.07v-5h-1.15V364h1.15v-2.5h1.23V364h2.63V365h-2.63Z"></path><path d="M273,369.73a2.92,2.92,0,0,0,.65.88,3,3,0,0,0,.9.55,3,3,0,0,0,1,.18A3.23,3.23,0,0,0,277,371a4.3,4.3,0,0,0,1.13-.85l.76.69a5,5,0,0,1-1.42,1.13,4.21,4.21,0,0,1-2,.42,4.07,4.07,0,0,1-1.6-.31,4,4,0,0,1-1.32-.88,4.24,4.24,0,0,1-.9-1.37,4.56,4.56,0,0,1-.33-1.76,4.68,4.68,0,0,1,.3-1.68,4.32,4.32,0,0,1,.82-1.38,3.73,3.73,0,0,1,1.26-.92,3.78,3.78,0,0,1,1.59-.34,3.72,3.72,0,0,1,1.63.35,3.64,3.64,0,0,1,1.22.93,4.1,4.1,0,0,1,.75,1.4,5.57,5.57,0,0,1,.26,1.71v.17a1.49,1.49,0,0,1,0,.21h-6.54A3.31,3.31,0,0,0,273,369.73Zm5-2.1a4.25,4.25,0,0,0-.23-1.07,2.84,2.84,0,0,0-.51-.9,2.5,2.5,0,0,0-.79-.61,2.39,2.39,0,0,0-1.09-.24,2.36,2.36,0,0,0-1,.22,2.64,2.64,0,0,0-.82.59,3.23,3.23,0,0,0-.57.89,3.61,3.61,0,0,0-.28,1.12Z"></path><path d="M286.26,372.22V360.54h1.23v11.68Z"></path><path d="M290.39,362.14v-1.36h1.4v1.36Zm.08,10.08V364h1.23v8.27Z"></path><path d="M300,371a2.61,2.61,0,0,1-.62.78,2.93,2.93,0,0,1-.93.48,3.66,3.66,0,0,1-1.16.17,5.3,5.3,0,0,1-1.81-.33,5.52,5.52,0,0,1-1.62-.89l.63-.87a5.25,5.25,0,0,0,1.4.78,4.14,4.14,0,0,0,1.46.27,2.06,2.06,0,0,0,1.23-.35,1.14,1.14,0,0,0,.48-1v0a.86.86,0,0,0-.16-.53,1.61,1.61,0,0,0-.46-.39,4.07,4.07,0,0,0-.66-.3l-.78-.24c-.32-.09-.64-.2-1-.31a4,4,0,0,1-.88-.42,2.33,2.33,0,0,1-.64-.65,1.74,1.74,0,0,1-.25-1v0a2.24,2.24,0,0,1,.79-1.72,2.87,2.87,0,0,1,.9-.48,3.72,3.72,0,0,1,1.13-.16,5.26,5.26,0,0,1,1.55.24,5.8,5.8,0,0,1,1.42.67l-.56.92a6,6,0,0,0-1.2-.58,3.94,3.94,0,0,0-1.24-.21,1.83,1.83,0,0,0-1.17.34,1,1,0,0,0-.43.86v0a.8.8,0,0,0,.17.5,1.63,1.63,0,0,0,.47.38,5.74,5.74,0,0,0,.69.29l.79.25c.33.1.64.2,1,.32a3.82,3.82,0,0,1,.85.45,2.16,2.16,0,0,1,.62.66,1.82,1.82,0,0,1,.23.94v0A2.35,2.35,0,0,1,300,371Z"></path><path d="M304,369.87a1.28,1.28,0,0,0,.39,1.07,1.58,1.58,0,0,0,1,.31,2.9,2.9,0,0,0,.6-.07,3.19,3.19,0,0,0,.6-.22V372a2.84,2.84,0,0,1-.68.27,3.35,3.35,0,0,1-.81.09,3.48,3.48,0,0,1-.93-.13,1.84,1.84,0,0,1-.74-.41,1.81,1.81,0,0,1-.49-.73,2.85,2.85,0,0,1-.18-1.07v-5h-1.15V364h1.15v-2.5H304V364h2.63V365H304Z"></path><path d="M308.87,362.14v-1.36h1.4v1.36Zm.07,10.08V364h1.24v8.27Z"></path><path d="M314.27,372.22H313V364h1.23v1.44a3.82,3.82,0,0,1,1.09-1.14,2.93,2.93,0,0,1,1.74-.48,3.48,3.48,0,0,1,1.34.24,2.78,2.78,0,0,1,1,.68,3.27,3.27,0,0,1,.63,1.05,4.09,4.09,0,0,1,.21,1.34v5.14H319v-4.83a2.66,2.66,0,0,0-.59-1.82,2.15,2.15,0,0,0-1.7-.68,2.45,2.45,0,0,0-1,.19,2.27,2.27,0,0,0-.79.52,2.29,2.29,0,0,0-.52.83,2.78,2.78,0,0,0-.19,1.06Z"></path><path d="M330.47,372.54a3.36,3.36,0,0,1-.84,1.26,3.79,3.79,0,0,1-1.33.76,5.58,5.58,0,0,1-1.74.25,6.82,6.82,0,0,1-2-.28,6.53,6.53,0,0,1-1.78-.87l.56-1a6.23,6.23,0,0,0,1.51.79,5.08,5.08,0,0,0,1.67.27,3.14,3.14,0,0,0,2.2-.75,2.83,2.83,0,0,0,.81-2.2v-1a5.17,5.17,0,0,1-1.32,1.23,3.48,3.48,0,0,1-1.92.51,4.14,4.14,0,0,1-1.45-.26,3.7,3.7,0,0,1-1.24-.77,3.58,3.58,0,0,1-.87-1.22,4.24,4.24,0,0,1,0-3.28,3.62,3.62,0,0,1,.87-1.23,3.91,3.91,0,0,1,1.25-.77,3.73,3.73,0,0,1,1.44-.28,4,4,0,0,1,1.06.14,3.86,3.86,0,0,1,.88.36,3.37,3.37,0,0,1,.71.53,5,5,0,0,1,.58.64V364h1.23v6.83A4.73,4.73,0,0,1,330.47,372.54Zm-1.14-6a2.74,2.74,0,0,0-.68-.89,3,3,0,0,0-1-.57,3.33,3.33,0,0,0-1.14-.2,3.4,3.4,0,0,0-1.11.19,2.83,2.83,0,0,0-.91.56,2.69,2.69,0,0,0-.62.89,3.07,3.07,0,0,0-.22,1.16,2.77,2.77,0,0,0,.86,2.06,2.6,2.6,0,0,0,.91.57,2.89,2.89,0,0,0,1.09.2,3.27,3.27,0,0,0,2.11-.76,3,3,0,0,0,.68-.89,2.63,2.63,0,0,0,.25-1.16A2.57,2.57,0,0,0,329.33,366.52Z"></path><path d="M339,371a2.49,2.49,0,0,1-.63.78,2.78,2.78,0,0,1-.92.48,3.66,3.66,0,0,1-1.16.17,5.3,5.3,0,0,1-1.81-.33,5.52,5.52,0,0,1-1.62-.89l.63-.87a5.25,5.25,0,0,0,1.4.78,4.14,4.14,0,0,0,1.46.27,2.06,2.06,0,0,0,1.23-.35,1.14,1.14,0,0,0,.48-1v0a.8.8,0,0,0-.17-.53,1.44,1.44,0,0,0-.45-.39,3.83,3.83,0,0,0-.67-.3l-.77-.24c-.32-.09-.64-.2-1-.31a3.77,3.77,0,0,1-.88-.42,2.33,2.33,0,0,1-.64-.65,1.66,1.66,0,0,1-.25-1v0a2.24,2.24,0,0,1,.79-1.72,2.76,2.76,0,0,1,.9-.48,3.72,3.72,0,0,1,1.13-.16,5.26,5.26,0,0,1,1.55.24,5.8,5.8,0,0,1,1.42.67l-.56.92a6,6,0,0,0-1.2-.58,4,4,0,0,0-1.24-.21,1.83,1.83,0,0,0-1.17.34,1,1,0,0,0-.43.86v0a.8.8,0,0,0,.17.5,1.63,1.63,0,0,0,.47.38,6.32,6.32,0,0,0,.68.29l.8.25c.32.1.64.2,1,.32a3.82,3.82,0,0,1,.85.45,2.16,2.16,0,0,1,.62.66,1.82,1.82,0,0,1,.23.94v0A2.35,2.35,0,0,1,339,371Z"></path><path class="cls-3" d="M214.51,167H196.56v8.7h15.92v5H196.56v12.85h-5.51V161.94h23.46Z"></path><path class="cls-3" d="M225.83,188a6.76,6.76,0,0,0,4.51,1.56,8,8,0,0,0,3.52-.72,11.45,11.45,0,0,0,2.93-2.12l3.2,2.84a13.15,13.15,0,0,1-4.08,3.25,12.28,12.28,0,0,1-5.66,1.22,12.73,12.73,0,0,1-4.8-.91,11.61,11.61,0,0,1-3.88-2.52,12,12,0,0,1-2.6-3.9,13.14,13.14,0,0,1-.94-5.08,13.47,13.47,0,0,1,.85-4.82,12,12,0,0,1,2.42-4,11.7,11.7,0,0,1,3.67-2.69,11,11,0,0,1,4.69-1,11.35,11.35,0,0,1,5,1,10.15,10.15,0,0,1,3.56,2.8,12,12,0,0,1,2.14,4.1,16.69,16.69,0,0,1,.73,4.92q0,.36,0,.72c0,.24,0,.5-.07.77h-17.5A7.17,7.17,0,0,0,225.83,188Zm9.83-8.09a9.41,9.41,0,0,0-.58-2.46,6.34,6.34,0,0,0-1.22-2,6,6,0,0,0-1.83-1.33,5.64,5.64,0,0,0-2.41-.49,5.5,5.5,0,0,0-4.17,1.73,7.84,7.84,0,0,0-2,4.54Z"></path><path class="cls-3" d="M261.15,193.51v-2.93A10.27,10.27,0,0,1,258,193a9.8,9.8,0,0,1-4.6,1,11.08,11.08,0,0,1-3.24-.47,8,8,0,0,1-2.69-1.4,6.8,6.8,0,0,1-2.55-5.48v-.09a7.42,7.42,0,0,1,.73-3.39,6.71,6.71,0,0,1,2-2.39,9.15,9.15,0,0,1,3.07-1.42,15.23,15.23,0,0,1,3.86-.47,21.27,21.27,0,0,1,3.67.27,22.1,22.1,0,0,1,2.91.72v-.58a4.72,4.72,0,0,0-1.51-3.79,6.48,6.48,0,0,0-4.35-1.31,14.06,14.06,0,0,0-3.61.41,23.64,23.64,0,0,0-3.2,1.08L247,171.32a24.83,24.83,0,0,1,4.06-1.44,20.07,20.07,0,0,1,5-.54q5.32,0,7.9,2.64t2.57,7.42v14.11Zm.13-10.1a13.88,13.88,0,0,0-2.46-.68,15.94,15.94,0,0,0-3-.27,6.93,6.93,0,0,0-4,1,3.23,3.23,0,0,0-1.44,2.84v.09A3,3,0,0,0,251.7,189a5.6,5.6,0,0,0,3.27.91,8,8,0,0,0,2.5-.37,6.33,6.33,0,0,0,2-1,4.69,4.69,0,0,0,1.33-1.58,4.48,4.48,0,0,0,.47-2Z"></path><path class="cls-3" d="M279.46,186.06a3,3,0,0,0,.77,2.29,3.07,3.07,0,0,0,2.16.7,7.48,7.48,0,0,0,3.38-.81v4.46a9.5,9.5,0,0,1-2.21.9,10.42,10.42,0,0,1-2.7.32,10.15,10.15,0,0,1-2.77-.36,5.58,5.58,0,0,1-2.2-1.18,5.21,5.21,0,0,1-1.43-2.14,9.42,9.42,0,0,1-.5-3.33V174.34h-3V169.7h3v-6.54h5.5v6.54h6.4v4.64h-6.4Z"></path><path class="cls-3" d="M306.93,169.7h5.5v23.81h-5.5v-3.73a11.84,11.84,0,0,1-2.93,3,7.59,7.59,0,0,1-4.49,1.25,8,8,0,0,1-6.26-2.48,9.68,9.68,0,0,1-2.2-6.68V169.7h5.5v13.5a6.34,6.34,0,0,0,1.32,4.3,4.72,4.72,0,0,0,3.74,1.5,5,5,0,0,0,3.84-1.55,6,6,0,0,0,1.48-4.34Z"></path><path class="cls-3" d="M324.79,193.51h-5.5V169.7h5.5v5.37a10.44,10.44,0,0,1,3.2-4.33,7.63,7.63,0,0,1,5.23-1.49V175h-.31a9,9,0,0,0-3.3.59,6.87,6.87,0,0,0-2.57,1.76,7.89,7.89,0,0,0-1.66,2.95,12.94,12.94,0,0,0-.59,4.13Z"></path><path class="cls-3" d="M343.6,188a6.74,6.74,0,0,0,4.51,1.56,8,8,0,0,0,3.52-.72,11.45,11.45,0,0,0,2.93-2.12l3.2,2.84a13.15,13.15,0,0,1-4.08,3.25,12.28,12.28,0,0,1-5.66,1.22,12.75,12.75,0,0,1-4.81-.91,11.82,11.82,0,0,1-3.88-2.52,12,12,0,0,1-2.59-3.9,13.14,13.14,0,0,1-.95-5.08,13.47,13.47,0,0,1,.86-4.82,12.19,12.19,0,0,1,2.41-4,11.86,11.86,0,0,1,3.68-2.69,11,11,0,0,1,4.69-1,11.35,11.35,0,0,1,5,1A10.25,10.25,0,0,1,356,173a12,12,0,0,1,2.14,4.1,16.68,16.68,0,0,1,.72,4.92c0,.24,0,.48,0,.72s0,.5-.07.77h-17.5A7.13,7.13,0,0,0,343.6,188Zm9.83-8.09a9.42,9.42,0,0,0-.59-2.46,6.32,6.32,0,0,0-1.21-2,6.11,6.11,0,0,0-1.83-1.33,5.64,5.64,0,0,0-2.41-.49,5.54,5.54,0,0,0-4.18,1.73,7.89,7.89,0,0,0-2,4.54Z"></path><path class="cls-3" d="M380.67,189.77a6.34,6.34,0,0,1-1.87,2.32,8.29,8.29,0,0,1-2.82,1.4,12.18,12.18,0,0,1-3.47.48,16.11,16.11,0,0,1-5.21-.91,16.64,16.64,0,0,1-4.89-2.66l2.43-3.7a15.69,15.69,0,0,0,4,2.19,11,11,0,0,0,3.85.75,4.62,4.62,0,0,0,2.73-.7,2.2,2.2,0,0,0,1-1.88V187a1.75,1.75,0,0,0-.42-1.17,4,4,0,0,0-1.18-.88,10.16,10.16,0,0,0-1.71-.67l-2-.61c-.87-.27-1.75-.57-2.64-.91a9.6,9.6,0,0,1-2.39-1.28,6.43,6.43,0,0,1-1.73-1.94,5.49,5.49,0,0,1-.68-2.87v-.09a6.93,6.93,0,0,1,.65-3,6.78,6.78,0,0,1,1.81-2.3,8,8,0,0,1,2.7-1.44,10.93,10.93,0,0,1,3.32-.5,15.15,15.15,0,0,1,4.55.72,16.58,16.58,0,0,1,4.2,2l-2.17,3.88a18.56,18.56,0,0,0-3.47-1.65,10.11,10.11,0,0,0-3.25-.61,4,4,0,0,0-2.46.68,2.08,2.08,0,0,0-.87,1.71v.09a1.57,1.57,0,0,0,.45,1.11,4.74,4.74,0,0,0,1.19.86,15.15,15.15,0,0,0,1.72.72c.64.22,1.31.44,2,.65.87.27,1.75.59,2.62.95a10.91,10.91,0,0,1,2.37,1.33,6.62,6.62,0,0,1,1.73,1.92,5.26,5.26,0,0,1,.68,2.75v.09A7.49,7.49,0,0,1,380.67,189.77Z"></path><path class="cls-3" d="M234.49,240.56a12.32,12.32,0,0,1-6.7,6.63,13.55,13.55,0,0,1-10.12,0,12.21,12.21,0,0,1-4-2.66,12.48,12.48,0,0,1-2.64-3.92,12.69,12.69,0,0,1,0-9.66,12.42,12.42,0,0,1,2.66-4,12.59,12.59,0,0,1,4-2.68,12.82,12.82,0,0,1,5.08-1,13,13,0,0,1,5.07,1,12.27,12.27,0,0,1,7.6,11.43A12,12,0,0,1,234.49,240.56Zm-5.07-7.71a7.67,7.67,0,0,0-1.5-2.46,7.2,7.2,0,0,0-8.16-1.67,6.78,6.78,0,0,0-2.26,1.64,7.21,7.21,0,0,0-1.44,2.42,8.66,8.66,0,0,0-.49,2.95,8.35,8.35,0,0,0,.54,3,7.22,7.22,0,0,0,3.78,4.11,7,7,0,0,0,2.9.61,7.18,7.18,0,0,0,3-.61,7.06,7.06,0,0,0,2.26-1.65,7,7,0,0,0,1.43-2.41,8.68,8.68,0,0,0,.5-3A8.15,8.15,0,0,0,229.42,232.85Z"></path><path class="cls-3" d="M254,224v4.51h-6.22v19.12h-5.5V228.52h-3V224h3v-1.71c0-2.65.63-4.61,1.91-5.89a7.32,7.32,0,0,1,5.44-1.92,14.74,14.74,0,0,1,2.48.18,16.78,16.78,0,0,1,1.94.45v4.61a11.47,11.47,0,0,0-1.56-.43,7.54,7.54,0,0,0-1.64-.16q-3.17,0-3.16,3.61V224Z"></path><path class="cls-3" d="M294.14,216.07h5.5v31.57H295l-17.38-22.46v22.46h-5.5V216.07h5.13l16.88,21.83Z"></path><path class="cls-3" d="M331.22,221.07h-18v8.71h15.93v5H313.26v12.85h-5.5V216.07h23.46Z"></path><path class="cls-3" d="M350.7,247.64h-5.59V221.21h-10v-5.14h25.61v5.14h-10Z"></path><path d="M483.81,106.38a1.41,1.41,0,0,0,.47.58,3.08,3.08,0,0,0,.93.48,10.33,10.33,0,0,0,1.52.41,6.61,6.61,0,0,1,2.76,1.16,2.5,2.5,0,0,1,.88,2,3,3,0,0,1-.28,1.31,2.89,2.89,0,0,1-.78,1,3.6,3.6,0,0,1-1.21.65,5.33,5.33,0,0,1-1.53.22,6.4,6.4,0,0,1-4.58-1.78l.78-.92a6.67,6.67,0,0,0,1.78,1.19,5.15,5.15,0,0,0,2.06.39,2.9,2.9,0,0,0,1.82-.53,1.69,1.69,0,0,0,.68-1.39,1.81,1.81,0,0,0-.13-.72,1.36,1.36,0,0,0-.45-.56,2.94,2.94,0,0,0-.89-.47,11.41,11.41,0,0,0-1.45-.4,11.75,11.75,0,0,1-1.67-.48,4,4,0,0,1-1.18-.66,2.32,2.32,0,0,1-.69-.9,3,3,0,0,1-.23-1.21,2.85,2.85,0,0,1,.27-1.24,3.12,3.12,0,0,1,.77-1,3.87,3.87,0,0,1,1.17-.64,4.62,4.62,0,0,1,1.47-.23,6.1,6.1,0,0,1,2.15.34,6.48,6.48,0,0,1,1.79,1l-.74,1a5.4,5.4,0,0,0-1.57-.93,4.87,4.87,0,0,0-1.66-.29,3.31,3.31,0,0,0-1,.14,2.59,2.59,0,0,0-.76.39,1.8,1.8,0,0,0-.48.58,1.58,1.58,0,0,0-.16.72A2.09,2.09,0,0,0,483.81,106.38Z"></path><path d="M493.81,111.58a3,3,0,0,0,.66.88,2.81,2.81,0,0,0,1.94.73,3.23,3.23,0,0,0,1.48-.32A4.31,4.31,0,0,0,499,112l.77.69a5,5,0,0,1-1.42,1.13,4.25,4.25,0,0,1-2,.42,4.15,4.15,0,0,1-1.6-.31,3.93,3.93,0,0,1-1.31-.88,4.08,4.08,0,0,1-.9-1.37,4.56,4.56,0,0,1-.33-1.76,4.73,4.73,0,0,1,.3-1.69,4.2,4.2,0,0,1,.82-1.37,3.73,3.73,0,0,1,1.26-.92,3.63,3.63,0,0,1,1.59-.34,3.72,3.72,0,0,1,1.63.35,3.64,3.64,0,0,1,1.22.93,4.14,4.14,0,0,1,.75,1.39,5.68,5.68,0,0,1,.25,1.72v.17a1.48,1.48,0,0,1,0,.21h-6.55A3.52,3.52,0,0,0,493.81,111.58Zm5-2.1a4.16,4.16,0,0,0-.23-1.07,2.74,2.74,0,0,0-.51-.9,2.34,2.34,0,0,0-1.88-.85,2.29,2.29,0,0,0-1,.22,2.72,2.72,0,0,0-.81.59,3.23,3.23,0,0,0-.57.89,3.92,3.92,0,0,0-.29,1.12Z"></path><path d="M503.87,106.94a7.67,7.67,0,0,0-1.18.44l-.36-1a8,8,0,0,1,1.39-.5,6.55,6.55,0,0,1,1.61-.18,3.72,3.72,0,0,1,2.61.84,3.2,3.2,0,0,1,.91,2.48v5.06h-1.18v-1.25a3.8,3.8,0,0,1-1.16,1,3.54,3.54,0,0,1-1.83.44,4.28,4.28,0,0,1-1.13-.16,3.06,3.06,0,0,1-1-.49,2.51,2.51,0,0,1-.71-.81,2.4,2.4,0,0,1-.26-1.14,2.57,2.57,0,0,1,.26-1.16,2.41,2.41,0,0,1,.72-.84,3.72,3.72,0,0,1,1.12-.51,5.42,5.42,0,0,1,1.44-.17,9.44,9.44,0,0,1,1.39.09,10.68,10.68,0,0,1,1.15.26V109a2.13,2.13,0,0,0-.65-1.69,2.65,2.65,0,0,0-1.81-.57A5.06,5.06,0,0,0,503.87,106.94Zm-.39,3.4a1.49,1.49,0,0,0-.63,1.27,1.45,1.45,0,0,0,.17.7,1.52,1.52,0,0,0,.46.52,2.27,2.27,0,0,0,.66.33,2.9,2.9,0,0,0,.79.11,3.38,3.38,0,0,0,1.07-.17,2.73,2.73,0,0,0,.88-.46,2.12,2.12,0,0,0,.59-.71,1.93,1.93,0,0,0,.22-.9v-.8a10.57,10.57,0,0,0-1.06-.24,8,8,0,0,0-1.37-.11A2.93,2.93,0,0,0,503.48,110.34Z"></path><path d="M512.71,114.07h-1.23V105.8h1.23V108a4.75,4.75,0,0,1,.56-.95,3.86,3.86,0,0,1,.77-.74,3.07,3.07,0,0,1,.94-.47,3.32,3.32,0,0,1,1.11-.15V107H516a3.38,3.38,0,0,0-1.27.24,2.9,2.9,0,0,0-1.05.72,3.41,3.41,0,0,0-.7,1.19,4.91,4.91,0,0,0-.26,1.64Z"></path><path d="M523.29,113.81a3.89,3.89,0,0,1-2,.45,4.07,4.07,0,0,1-1.68-.34,4.28,4.28,0,0,1-1.35-.93,4.34,4.34,0,0,1-1.21-3,4.43,4.43,0,0,1,1.21-3.06,4.28,4.28,0,0,1,1.35-.93,4.08,4.08,0,0,1,1.68-.35,5.05,5.05,0,0,1,1.08.11,4,4,0,0,1,1.61.79,6.89,6.89,0,0,1,.63.57l-.82.87a5.63,5.63,0,0,0-1.08-.88,2.6,2.6,0,0,0-1.43-.37,2.7,2.7,0,0,0-1.17.25,2.77,2.77,0,0,0-.94.68,3.35,3.35,0,0,0-.63,1,3.48,3.48,0,0,0-.22,1.26,3.52,3.52,0,0,0,.23,1.26,3.38,3.38,0,0,0,.64,1,3,3,0,0,0,3.58.58,4.54,4.54,0,0,0,1.12-.88l.78.74A5.83,5.83,0,0,1,523.29,113.81Z"></path><path d="M528,114.07h-1.23V102.39H528v4.85a4,4,0,0,1,1.09-1.15,3,3,0,0,1,1.75-.47,3.47,3.47,0,0,1,1.33.24,2.78,2.78,0,0,1,1,.68,3,3,0,0,1,.63,1,4.09,4.09,0,0,1,.21,1.34v5.14h-1.23v-4.83a2.65,2.65,0,0,0-.59-1.83,2.16,2.16,0,0,0-1.7-.67,2.45,2.45,0,0,0-1,.19,2.22,2.22,0,0,0-.79.52,2.29,2.29,0,0,0-.52.83,3,3,0,0,0-.19,1Z"></path><path d="M536.63,104v-1.36H538V104Zm.08,10.08V105.8h1.23v8.27Z"></path><path d="M542,114.07h-1.23V105.8H542v1.44a4,4,0,0,1,1.09-1.15,3,3,0,0,1,1.74-.47,3.52,3.52,0,0,1,1.34.24,2.78,2.78,0,0,1,1,.68,3,3,0,0,1,.62,1,3.85,3.85,0,0,1,.22,1.34v5.14h-1.23v-4.83a2.65,2.65,0,0,0-.6-1.83,2.15,2.15,0,0,0-1.69-.67,2.53,2.53,0,0,0-1,.19,2.31,2.31,0,0,0-.79.52,2.44,2.44,0,0,0-.52.83,3,3,0,0,0-.18,1Z"></path><path d="M558.24,114.39a3.38,3.38,0,0,1-.85,1.26,3.86,3.86,0,0,1-1.33.76,5.52,5.52,0,0,1-1.73.25,6.52,6.52,0,0,1-2-.29,6.31,6.31,0,0,1-1.77-.86l.56-1a6,6,0,0,0,1.5.78,4.86,4.86,0,0,0,1.68.28,3.1,3.1,0,0,0,2.19-.75,2.8,2.8,0,0,0,.82-2.2v-1a5.21,5.21,0,0,1-1.33,1.23,3.43,3.43,0,0,1-1.92.51,4.22,4.22,0,0,1-1.45-.26,4,4,0,0,1-1.24-.77,3.91,3.91,0,0,1-.87-1.23,3.86,3.86,0,0,1-.33-1.63,3.8,3.8,0,0,1,2.45-3.65,4,4,0,0,1,1.44-.27,3.94,3.94,0,0,1,1.06.14,3.68,3.68,0,0,1,.88.36,3.43,3.43,0,0,1,.72.53,4.92,4.92,0,0,1,.57.64V105.8h1.23v6.83A4.74,4.74,0,0,1,558.24,114.39Zm-1.15-6a2.61,2.61,0,0,0-.68-.89,2.91,2.91,0,0,0-1-.57,3.42,3.42,0,0,0-1.14-.2,3.12,3.12,0,0,0-1.11.19,2.73,2.73,0,0,0-.91.56,2.55,2.55,0,0,0-.62.89,2.89,2.89,0,0,0-.22,1.16,2.81,2.81,0,0,0,.85,2.06,2.69,2.69,0,0,0,.91.57,2.94,2.94,0,0,0,1.1.2,3.19,3.19,0,0,0,1.14-.2,2.91,2.91,0,0,0,1-.57,2.67,2.67,0,0,0,.68-.88,2.63,2.63,0,0,0,.26-1.16A2.57,2.57,0,0,0,557.09,108.37Z"></path><path d="M488.59,125v1.06H486v7.18h-1.23v-7.18h-1.14V125h1.14v-.72a3,3,0,0,1,.65-2.06,2.38,2.38,0,0,1,1.85-.7,5.41,5.41,0,0,1,.74,0,4.71,4.71,0,0,1,.62.16v1.08l-.61-.16a3.61,3.61,0,0,0-.59-.05c-1,0-1.44.58-1.44,1.76V125Z"></path><path d="M497.78,130.8a4.34,4.34,0,0,1-.9,1.38,4.17,4.17,0,0,1-1.38.94,4.31,4.31,0,0,1-1.73.34,4.21,4.21,0,0,1-1.71-.34,4.44,4.44,0,0,1-1.36-.93,4.44,4.44,0,0,1-.89-4.7,4.3,4.3,0,0,1,.89-1.39,4.37,4.37,0,0,1,1.37-.93,4.33,4.33,0,0,1,1.74-.35,4.34,4.34,0,0,1,3.08,1.27,4.08,4.08,0,0,1,.9,1.37,4.43,4.43,0,0,1,.32,1.67A4.33,4.33,0,0,1,497.78,130.8Zm-1.17-2.91a3,3,0,0,0-1.62-1.72,2.9,2.9,0,0,0-1.22-.26,3,3,0,0,0-1.23.25,2.71,2.71,0,0,0-1,.68,3.45,3.45,0,0,0-.62,1,3.61,3.61,0,0,0-.22,1.25,3.52,3.52,0,0,0,.23,1.26,3.33,3.33,0,0,0,.64,1,3.06,3.06,0,0,0,1,.69,2.9,2.9,0,0,0,1.22.25,3,3,0,0,0,2.19-.92,3.1,3.1,0,0,0,.62-1,3.43,3.43,0,0,0,.23-1.25A3.29,3.29,0,0,0,496.61,127.89Z"></path><path d="M501.57,133.27h-1.24V125h1.24v2.16a4.32,4.32,0,0,1,.56-1,4.09,4.09,0,0,1,.76-.74,3.12,3.12,0,0,1,.95-.47,3.29,3.29,0,0,1,1.1-.15v1.33h-.09a3.43,3.43,0,0,0-1.28.24,2.87,2.87,0,0,0-1,.72,3.43,3.43,0,0,0-.71,1.19,4.91,4.91,0,0,0-.25,1.64Z"></path><path d="M511.65,123.19v-1.36h1.4v1.36Zm.08,10.08V125H513v8.27Z"></path><path d="M517.49,130.92a1.28,1.28,0,0,0,.38,1.07,1.6,1.6,0,0,0,1,.3,2.91,2.91,0,0,0,.6-.06,3.19,3.19,0,0,0,.6-.22v1.05a2.84,2.84,0,0,1-.68.27,4,4,0,0,1-.81.08,3.48,3.48,0,0,1-.93-.12,2.05,2.05,0,0,1-.74-.41,1.92,1.92,0,0,1-.49-.73,2.89,2.89,0,0,1-.18-1.07v-5H515.1V125h1.15v-2.5h1.24V125h2.62v1.09h-2.62Z"></path><path d="M523.12,130.78a2.92,2.92,0,0,0,.65.88,3,3,0,0,0,.9.55,3,3,0,0,0,1,.18,3.2,3.2,0,0,0,1.48-.32,4.36,4.36,0,0,0,1.13-.85l.77.69a5,5,0,0,1-1.43,1.13,4.21,4.21,0,0,1-2,.42,4.08,4.08,0,0,1-2.92-1.19,4.22,4.22,0,0,1-.89-1.37,4.38,4.38,0,0,1-.34-1.76,4.73,4.73,0,0,1,.3-1.69,4.38,4.38,0,0,1,.82-1.37,3.83,3.83,0,0,1,1.26-.92,3.93,3.93,0,0,1,3.22,0,3.64,3.64,0,0,1,1.22.93,4.14,4.14,0,0,1,.75,1.39,5.68,5.68,0,0,1,.26,1.72v.17a1.49,1.49,0,0,1,0,.21H522.8A3.31,3.31,0,0,0,523.12,130.78Zm5-2.1a3.78,3.78,0,0,0-.23-1.07,2.74,2.74,0,0,0-.51-.9,2.42,2.42,0,0,0-.79-.62,2.5,2.5,0,0,0-1.09-.23,2.25,2.25,0,0,0-1,.22,2.49,2.49,0,0,0-.81.59,3,3,0,0,0-.58.89,3.92,3.92,0,0,0-.28,1.12Z"></path><path d="M538.58,125.83a3.54,3.54,0,0,1,.63-.53,3.23,3.23,0,0,1,.8-.35,3.32,3.32,0,0,1,1-.13,2.94,2.94,0,0,1,2.26.89,3.49,3.49,0,0,1,.81,2.44v5.12h-1.23v-4.83a2.71,2.71,0,0,0-.57-1.85,2,2,0,0,0-1.57-.65,2.34,2.34,0,0,0-.88.17,2,2,0,0,0-.73.5,2.23,2.23,0,0,0-.5.8,3.12,3.12,0,0,0-.18,1.09v4.77h-1.22v-4.86a2.66,2.66,0,0,0-.57-1.82,2,2,0,0,0-1.56-.65,2.28,2.28,0,0,0-.91.19,2.17,2.17,0,0,0-.73.55,2.57,2.57,0,0,0-.48.82,3,3,0,0,0-.18,1.05v4.72h-1.23V125h1.23v1.39a6.26,6.26,0,0,1,.46-.59,3,3,0,0,1,.56-.51,3.4,3.4,0,0,1,.72-.34,2.94,2.94,0,0,1,.93-.13,2.84,2.84,0,0,1,1.67.47,3.21,3.21,0,0,1,1,1.18A6.12,6.12,0,0,1,538.58,125.83Z"></path><path d="M552.18,132a2.32,2.32,0,0,1-.62.77,2.58,2.58,0,0,1-.93.49,3.92,3.92,0,0,1-1.16.17,5.3,5.3,0,0,1-1.81-.33,5.47,5.47,0,0,1-1.61-.89l.62-.88a5.16,5.16,0,0,0,1.4.79,4.18,4.18,0,0,0,1.46.27,2.07,2.07,0,0,0,1.24-.35,1.14,1.14,0,0,0,.48-1v0a.86.86,0,0,0-.17-.53,1.49,1.49,0,0,0-.46-.39,3.36,3.36,0,0,0-.66-.3q-.37-.14-.78-.24l-1-.31a4.23,4.23,0,0,1-.88-.43,2.17,2.17,0,0,1-.64-.64,1.75,1.75,0,0,1-.24-1v0a2.4,2.4,0,0,1,.2-1,2.26,2.26,0,0,1,.59-.75,2.63,2.63,0,0,1,.89-.48,3.77,3.77,0,0,1,1.13-.17,5.28,5.28,0,0,1,1.55.25,5.88,5.88,0,0,1,1.43.67l-.56.92a5.84,5.84,0,0,0-1.21-.58,3.91,3.91,0,0,0-1.24-.22,1.83,1.83,0,0,0-1.17.35,1,1,0,0,0-.43.85v0a.75.75,0,0,0,.18.5,1.53,1.53,0,0,0,.47.38,4.36,4.36,0,0,0,.68.28l.8.26c.32.1.64.2,1,.32a4.13,4.13,0,0,1,.86.45,2.21,2.21,0,0,1,.61.65,1.76,1.76,0,0,1,.23.95v0A2.25,2.25,0,0,1,552.18,132Z"></path><path d="M46.73,114.94h1l3.07,9.36L54,115h1.33l-4,11.28H50.3l-3.07-9.08-3.09,9.08H43.08l-4-11.28h1.38l3.2,9.33Z"></path><path d="M58,119.05a6.47,6.47,0,0,0-1.18.44l-.37-1a8.33,8.33,0,0,1,1.39-.51,6.58,6.58,0,0,1,1.62-.18,3.72,3.72,0,0,1,2.61.84,3.21,3.21,0,0,1,.91,2.49v5H61.79v-1.24a4.23,4.23,0,0,1-1.16,1,3.55,3.55,0,0,1-1.84.43,3.84,3.84,0,0,1-1.12-.16,3.21,3.21,0,0,1-1-.49,2.6,2.6,0,0,1-.7-.81,2.25,2.25,0,0,1-.26-1.13A2.51,2.51,0,0,1,56,122.6a2.27,2.27,0,0,1,.73-.84,3.2,3.2,0,0,1,1.12-.51,5.33,5.33,0,0,1,1.43-.18,8.08,8.08,0,0,1,1.39.1,10.84,10.84,0,0,1,1.16.25v-.29a2.11,2.11,0,0,0-.65-1.68,2.66,2.66,0,0,0-1.82-.57A4.61,4.61,0,0,0,58,119.05Zm-.4,3.4a1.5,1.5,0,0,0-.62,1.26,1.42,1.42,0,0,0,.17.7,1.5,1.5,0,0,0,.45.52,1.86,1.86,0,0,0,.66.33,2.6,2.6,0,0,0,.79.11,3.44,3.44,0,0,0,1.08-.16,3.08,3.08,0,0,0,.88-.47,2.32,2.32,0,0,0,.59-.7,2,2,0,0,0,.21-.91v-.8c-.31-.08-.66-.16-1.06-.24a7.88,7.88,0,0,0-1.36-.11A3,3,0,0,0,57.59,122.45Z"></path><path d="M65.71,126.17V114.49h1.23v11.68Z"></path><path d="M69.91,126.17V114.49h1.24v11.68Z"></path><path d="M75.08,123.69a2.91,2.91,0,0,0,.66.88,2.63,2.63,0,0,0,.89.54,3,3,0,0,0,1,.18,3.08,3.08,0,0,0,1.48-.32,4.32,4.32,0,0,0,1.13-.84l.77.68a5.09,5.09,0,0,1-1.42,1.13,4.27,4.27,0,0,1-2,.43,4.12,4.12,0,0,1-1.6-.32,3.78,3.78,0,0,1-1.31-.88,4,4,0,0,1-.9-1.36,4.6,4.6,0,0,1-.33-1.76,5,5,0,0,1,.29-1.69,4.34,4.34,0,0,1,.83-1.38,3.94,3.94,0,0,1,1.25-.92,3.85,3.85,0,0,1,1.6-.33,3.74,3.74,0,0,1,1.63.34,3.5,3.5,0,0,1,1.21.94,4.14,4.14,0,0,1,.76,1.39,5.57,5.57,0,0,1,.25,1.71v.18a1.41,1.41,0,0,1,0,.2H74.76A3.42,3.42,0,0,0,75.08,123.69Zm5-2.11a4.25,4.25,0,0,0-.23-1.07,3.05,3.05,0,0,0-.51-.9,2.43,2.43,0,0,0-.8-.61,2.34,2.34,0,0,0-1.09-.23,2.39,2.39,0,0,0-1,.21,2.64,2.64,0,0,0-.81.59,3.23,3.23,0,0,0-.57.89,3.69,3.69,0,0,0-.29,1.12Z"></path><path d="M85.15,123.82a1.28,1.28,0,0,0,.38,1.07,1.54,1.54,0,0,0,1,.31,2.35,2.35,0,0,0,.6-.07,2.62,2.62,0,0,0,.6-.22V126a3.29,3.29,0,0,1-.68.26,3.35,3.35,0,0,1-.81.09,3.48,3.48,0,0,1-.93-.13,1.91,1.91,0,0,1-.74-.41,1.84,1.84,0,0,1-.49-.73,2.82,2.82,0,0,1-.18-1.07v-5H82.76V117.9h1.15v-2.49h1.24v2.49h2.62V119H85.15Z"></path><path d="M31,276.13a3.63,3.63,0,0,1,1.15.56,2.38,2.38,0,0,1,.73.88,2.6,2.6,0,0,1,.26,1.16,2.92,2.92,0,0,1-.16,1,2.58,2.58,0,0,1-.4.73A2.64,2.64,0,0,1,32,281a4.13,4.13,0,0,1-.65.36,4.84,4.84,0,0,1,.94.37,3.32,3.32,0,0,1,.76.56,2.42,2.42,0,0,1,.7,1.79,2.85,2.85,0,0,1-.29,1.29,2.56,2.56,0,0,1-.82,1,4,4,0,0,1-1.29.6,6.13,6.13,0,0,1-1.66.21h-5v-11.2H29.5A5.41,5.41,0,0,1,31,276.13Zm.15,4.28a1.74,1.74,0,0,0,.72-1.51,1.61,1.61,0,0,0-.64-1.35,2.91,2.91,0,0,0-1.83-.5H26v3.87h3.3A3.09,3.09,0,0,0,31.16,280.41Zm.61,5.07a1.73,1.73,0,0,0,.74-1.49,1.64,1.64,0,0,0-.75-1.44,4,4,0,0,0-2.22-.51H26v4h3.75A3.4,3.4,0,0,0,31.77,285.48Z"></path><path d="M42,278.86h1.22v8.27H42v-1.44a3.82,3.82,0,0,1-1.09,1.14,2.91,2.91,0,0,1-1.74.48,3.52,3.52,0,0,1-1.34-.24,2.78,2.78,0,0,1-1-.68,3.07,3.07,0,0,1-.62-1.05A3.86,3.86,0,0,1,36,284v-5.13h1.23v4.83a2.61,2.61,0,0,0,.6,1.82,2.13,2.13,0,0,0,1.69.68,2.53,2.53,0,0,0,1-.19,2.32,2.32,0,0,0,.78-.52,2.6,2.6,0,0,0,.52-.83,2.78,2.78,0,0,0,.19-1.06Z"></path><path d="M50,287.4a4.49,4.49,0,0,1-1.18,1.81,2.42,2.42,0,0,1-1.57.53,3.71,3.71,0,0,1-.93-.11,3.35,3.35,0,0,1-.83-.31l.41-1a3,3,0,0,0,.6.23,2.91,2.91,0,0,0,.7.07,1.34,1.34,0,0,0,.94-.34,3.15,3.15,0,0,0,.75-1.21l-3.76-8.24h1.36l3,6.89,2.66-6.89h1.31Z"></path><path d="M61.86,280a7.3,7.3,0,0,0-1.18.44l-.37-1a8.6,8.6,0,0,1,1.39-.5,6.58,6.58,0,0,1,1.62-.18,3.72,3.72,0,0,1,2.61.84,3.2,3.2,0,0,1,.91,2.48v5.06H65.66v-1.25a3.92,3.92,0,0,1-1.16,1,3.55,3.55,0,0,1-1.84.44,4.21,4.21,0,0,1-1.12-.16,3.21,3.21,0,0,1-1-.49,2.6,2.6,0,0,1-.7-.81,2.29,2.29,0,0,1-.26-1.14,2.57,2.57,0,0,1,.25-1.16,2.44,2.44,0,0,1,.73-.84,3.72,3.72,0,0,1,1.12-.51,5.78,5.78,0,0,1,1.43-.17,9.25,9.25,0,0,1,1.39.09,10.86,10.86,0,0,1,1.16.26v-.29A2.13,2.13,0,0,0,65,280.4a2.66,2.66,0,0,0-1.82-.57A5,5,0,0,0,61.86,280Zm-.4,3.4a1.51,1.51,0,0,0-.62,1.27,1.45,1.45,0,0,0,.17.7,1.6,1.6,0,0,0,.45.52,2.27,2.27,0,0,0,.66.33,3,3,0,0,0,.79.11,3.4,3.4,0,0,0,1.08-.17,2.73,2.73,0,0,0,.88-.46,2.24,2.24,0,0,0,.59-.71,1.93,1.93,0,0,0,.21-.9v-.8c-.31-.08-.66-.16-1.06-.24a7.88,7.88,0,0,0-1.36-.11A3,3,0,0,0,61.46,283.4Z"></path><path d="M70.7,287.13H69.46v-8.27H70.7v1.44a3.94,3.94,0,0,1,1.08-1.15,3,3,0,0,1,1.75-.47,3.43,3.43,0,0,1,1.33.24,2.91,2.91,0,0,1,1,.68,3.07,3.07,0,0,1,.62,1A3.85,3.85,0,0,1,76.7,282v5.14H75.46V282.3a2.61,2.61,0,0,0-.59-1.82,2.13,2.13,0,0,0-1.69-.68,2.5,2.5,0,0,0-1,.19,2.47,2.47,0,0,0-.79.52,2.44,2.44,0,0,0-.52.83,3,3,0,0,0-.18,1.05Z"></path><path d="M86,287.13v-1.66a6.23,6.23,0,0,1-.57.7,3.91,3.91,0,0,1-.69.59,3.08,3.08,0,0,1-.86.4,3.41,3.41,0,0,1-1,.15,3.83,3.83,0,0,1-1.45-.29,3.91,3.91,0,0,1-1.27-.84,4.12,4.12,0,0,1-.89-1.35,4.59,4.59,0,0,1-.34-1.83,4.54,4.54,0,0,1,.34-1.82,4,4,0,0,1,.89-1.35,4.1,4.1,0,0,1,1.27-.85,3.66,3.66,0,0,1,1.45-.3,3.53,3.53,0,0,1,1.06.15,3.21,3.21,0,0,1,.86.38,3.82,3.82,0,0,1,.7.56,4.89,4.89,0,0,1,.55.67v-5h1.23v11.68Zm-.2-5.45a2.93,2.93,0,0,0-.67-1,3.13,3.13,0,0,0-1-.65,2.92,2.92,0,0,0-2.25,0,2.62,2.62,0,0,0-.92.62,2.88,2.88,0,0,0-.62,1A3.61,3.61,0,0,0,80.1,283a3.45,3.45,0,0,0,.24,1.32,3,3,0,0,0,.63,1,2.58,2.58,0,0,0,.93.64,2.8,2.8,0,0,0,1.12.23,2.87,2.87,0,0,0,1.11-.23,3.13,3.13,0,0,0,1-.65,2.88,2.88,0,0,0,.67-1A3.32,3.32,0,0,0,86,283,3.26,3.26,0,0,0,85.76,281.68Z"></path><path d="M70,295.33a3.52,3.52,0,0,1,1.15.56,2.38,2.38,0,0,1,.73.88,2.6,2.6,0,0,1,.26,1.16,2.93,2.93,0,0,1-.15,1,2.6,2.6,0,0,1-.41.73,2.42,2.42,0,0,1-.57.54,4,4,0,0,1-.64.36,4.75,4.75,0,0,1,.93.37,2.94,2.94,0,0,1,.76.56,2.46,2.46,0,0,1,.7,1.79,2.84,2.84,0,0,1-.28,1.29,2.67,2.67,0,0,1-.83,1,3.89,3.89,0,0,1-1.28.6,6.18,6.18,0,0,1-1.66.21h-5v-11.2h4.76A5.39,5.39,0,0,1,70,295.33Zm.16,4.28a1.74,1.74,0,0,0,.72-1.51,1.63,1.63,0,0,0-.64-1.35,3,3,0,0,0-1.84-.5H65v3.87h3.31A3.13,3.13,0,0,0,70.19,299.61Zm.61,5.07a1.75,1.75,0,0,0,.73-1.49,1.64,1.64,0,0,0-.75-1.44,4,4,0,0,0-2.22-.51H65v4h3.75A3.41,3.41,0,0,0,70.8,304.68Z"></path><path d="M75.15,296.25v-1.36h1.4v1.36Zm.08,10.08v-8.27h1.23v8.27Z"></path><path d="M86,306.33v-1.66a6.23,6.23,0,0,1-.57.7,3.91,3.91,0,0,1-.69.59,3.08,3.08,0,0,1-.86.4,3.41,3.41,0,0,1-1,.15,3.83,3.83,0,0,1-1.45-.29,3.91,3.91,0,0,1-1.27-.84,4.12,4.12,0,0,1-.89-1.35,4.59,4.59,0,0,1-.34-1.83,4.54,4.54,0,0,1,.34-1.82,4,4,0,0,1,2.16-2.2,3.66,3.66,0,0,1,1.45-.3,3.53,3.53,0,0,1,1.06.15,3.21,3.21,0,0,1,.86.38,3.82,3.82,0,0,1,.7.56,4.89,4.89,0,0,1,.55.67v-5h1.23v11.68Zm-.2-5.45a3,3,0,0,0-.67-1,3.13,3.13,0,0,0-1-.65A2.87,2.87,0,0,0,83,299a3,3,0,0,0-1.14.22,2.62,2.62,0,0,0-.92.62,2.88,2.88,0,0,0-.62,1,3.61,3.61,0,0,0-.24,1.35,3.45,3.45,0,0,0,.24,1.32,3,3,0,0,0,.63,1,2.58,2.58,0,0,0,.93.64,2.8,2.8,0,0,0,1.12.23,2.87,2.87,0,0,0,1.11-.23,3.13,3.13,0,0,0,1-.65,2.88,2.88,0,0,0,.67-1,3.32,3.32,0,0,0,.25-1.31A3.26,3.26,0,0,0,85.76,300.88Z"></path><path class="cls-4" d="M123.19,107.48a8.67,8.67,0,0,0-1.17-4h3.49a2,2,0,0,1,2,2v2Z"></path><path class="cls-4" d="M118,124.34a6.17,6.17,0,0,0,6.17,6.17h6.35v5a2,2,0,0,1-2,2h-27a4,4,0,0,1-4-4v-26a4,4,0,0,1,4-4h5.27a8.56,8.56,0,0,0-1.18,4H104a1.51,1.51,0,0,0,0,3h24.53a2,2,0,0,1,2,2v5.68h-6.35A6.17,6.17,0,0,0,118,124.34Z"></path><path class="cls-4" d="M131,120.67h-6.85a3.67,3.67,0,0,0,0,7.34H131a.5.5,0,0,0,.5-.5v-6.34A.5.5,0,0,0,131,120.67Zm-6,5.18a1.51,1.51,0,1,1,1.5-1.51A1.51,1.51,0,0,1,125,125.85Z"></path><path class="cls-4" d="M120.53,107.48a6.19,6.19,0,0,0-12.37,0Zm0,0Zm-12.37,0Z"></path><path class="cls-4" d="M142.18,310.54l-2-6a1.32,1.32,0,0,1,.09-1,15.55,15.55,0,0,0-8.84-21.83,18.49,18.49,0,0,1,1.09,10.53,18.21,18.21,0,0,1-14.63,14.49A19.92,19.92,0,0,1,115,307a15.52,15.52,0,0,0,18.45,3.3,1.34,1.34,0,0,1,1-.08l6,2A1.34,1.34,0,0,0,142.18,310.54Z"></path><path class="cls-4" d="M116.09,290.26h-4.7V293h4.7a1.38,1.38,0,1,0,0-2.76Zm-4.52-16.8a15.55,15.55,0,0,0-10.84,22.37,1.34,1.34,0,0,1,.09,1l-2,6a1.34,1.34,0,0,0,1.7,1.7l6-2a1.3,1.3,0,0,1,1,.09,15.55,15.55,0,1,0,4-29.14Zm8.66,18.18a4.15,4.15,0,0,1-4.14,4.14h-.28v1.93a1.38,1.38,0,1,1-2.76,0v-1.93h-3a1.37,1.37,0,0,1-1.37-1.38v-11A1.37,1.37,0,0,1,110,282h3v-1.93a1.38,1.38,0,1,1,2.76,0V282h.28a4.15,4.15,0,0,1,4.14,4.14,4.1,4.1,0,0,1-1.08,2.76A4.14,4.14,0,0,1,120.23,291.64Zm-4.14-6.9h-4.7v2.76h4.7a1.38,1.38,0,1,0,0-2.76Z"></path><path class="cls-4" d="M306.71,97.59h-2.78V75.75l-.39,0h-.32A7.62,7.62,0,0,1,297.33,73a7.62,7.62,0,0,1-5.89,2.79h-.32A7.62,7.62,0,0,1,285.23,73a7.62,7.62,0,0,1-5.89,2.79H279A7.62,7.62,0,0,1,273.13,73a7.6,7.6,0,0,1-5.88,2.79h-.33l-.39,0V97.59h-2.77A1.39,1.39,0,0,0,262.37,99v4.85a.69.69,0,0,0,.7.69H307.4a.69.69,0,0,0,.69-.69V99A1.38,1.38,0,0,0,306.71,97.59Zm-22.17-2.08a.69.69,0,0,1-.69.7H271.38a.69.69,0,0,1-.69-.7V81.66a.69.69,0,0,1,.69-.69h12.47a.69.69,0,0,1,.69.69Zm15.24,4.16a.69.69,0,0,1-.69.69h-8.32a.69.69,0,0,1-.69-.69v-18a.69.69,0,0,1,.69-.69h8.32a.69.69,0,0,1,.69.69Z"></path><path class="cls-4" d="M295.62,89.63h-1.38a1.73,1.73,0,0,0,0,3.46h1.38a1.73,1.73,0,1,0,0-3.46ZM307.7,66.07V63.2a2.76,2.76,0,0,0-.37-1.37l-2.5-4.4a2.78,2.78,0,0,0-2.41-1.4H268a2.78,2.78,0,0,0-2.41,1.4l-2.5,4.4a2.75,2.75,0,0,0-.36,1.37v4h0v1a4.16,4.16,0,0,0,4.15,4.16h.33a4.16,4.16,0,0,0,4.15-4.16V65.73a1.74,1.74,0,0,1,3.47,0v2.42A4.16,4.16,0,0,0,279,72.31h.32a4.16,4.16,0,0,0,4.16-4.16V66.07h0v-.34a1.73,1.73,0,0,1,3.46,0V67.2h0v1a4.17,4.17,0,0,0,4.16,4.16h.32a4.17,4.17,0,0,0,4.16-4.16V65.73a1.73,1.73,0,0,1,3.46,0v2.42a4.17,4.17,0,0,0,4.16,4.16h.32a4.17,4.17,0,0,0,4.16-4.16V66.07Z"></path><path class="cls-4" d="M285.22,348.81a.63.63,0,0,0-.89,0c-.41.42-1,1-1.29,1.29a.62.62,0,0,0-.18.4l-.32,4.11a.63.63,0,0,0,.71.68l3.95-.45a.65.65,0,0,0,.38-.18l1.29-1.3a.63.63,0,0,0,0-.9ZM302.29,339l-3.65-3.65a.63.63,0,0,0-.9,0l-10.21,10.22a.63.63,0,0,0,0,.9l3.65,3.64a.62.62,0,0,0,.89,0l10.22-10.21A.63.63,0,0,0,302.29,339Zm-2.74-26a2.54,2.54,0,0,0-2.55-2.54h-1.38a.63.63,0,0,0-.63.63V315a.64.64,0,0,1-.64.63H272.84a.64.64,0,0,1-.64-.63v-3.82a.63.63,0,0,0-.63-.63h-1.26a2.53,2.53,0,0,0-2.54,2.54v33.05a2.54,2.54,0,0,0,2.54,2.54h9.88a3.91,3.91,0,0,1,.59-.81l1.75-1.74,17-17Zm-14.62,18.27H276a1.59,1.59,0,1,1,0-3.17h8.9a1.59,1.59,0,1,1,0,3.17Zm6.35-6.35H276a1.59,1.59,0,1,1,0-3.18h15.25a1.59,1.59,0,1,1,0,3.18Z"></path><path class="cls-4" d="M288.45,306.36a2.34,2.34,0,0,1-1.62-2.19,3.1,3.1,0,0,0-3.11-3.15h-.13a3,3,0,0,0-3.11,3,2.35,2.35,0,0,1-1.61,2.32c-2,.68-3.49,1.31-3.49,3.55v1.91a.64.64,0,0,0,.64.64h15.26a.64.64,0,0,0,.64-.64v-1.91C291.92,307.67,290.46,307,288.45,306.36ZM307.31,334l-3.64-3.64a.63.63,0,0,0-.9,0l-1.92,1.91a.63.63,0,0,0,0,.9l3.65,3.65a.63.63,0,0,0,.9,0l1.91-1.92A.63.63,0,0,0,307.31,334Z"></path><path class="cls-4" d="M472.37,129.64l-12.83,7.7a.44.44,0,0,0-.21.37v14.34a.43.43,0,0,0,.65.37l12.83-7.4a.43.43,0,0,0,.22-.38V130A.44.44,0,0,0,472.37,129.64Zm-28.26,0a.44.44,0,0,0-.66.38v14.62a.45.45,0,0,0,.22.38l12.83,7.4a.43.43,0,0,0,.65-.37V137.71a.44.44,0,0,0-.21-.37Z"></path><path class="cls-4" d="M463.26,122.18l-4.8-2.78a.49.49,0,0,0-.44,0l-13,7.5a.44.44,0,0,0,0,.75l5,3a.41.41,0,0,0,.45,0l12.83-7.69A.44.44,0,0,0,463.26,122.18Zm8.66,4.74-2.19-4.77a.44.44,0,0,0-.62-.19l-13,7.79a.45.45,0,0,0-.18.55l2.09,4.82a.44.44,0,0,0,.63.2l13.08-7.85A.43.43,0,0,0,471.92,126.92Z"></path><path class="cls-4" d="M457.53,96.84a12.42,12.42,0,0,0-19.21,15.53l-2,1.95-.3-.3a.67.67,0,0,0-.49-.2.65.65,0,0,0-.48.2l-7.36,7.36a1.36,1.36,0,0,0,0,1.94l2.73,2.73a1.38,1.38,0,0,0,1.94,0l7.36-7.36a.68.68,0,0,0,0-1l-.31-.31,1.86-1.85a12.42,12.42,0,0,0,16.22-18.72Zm-3.88,13.68a6.94,6.94,0,0,1-9,.64l-1-.76-.66-1a7,7,0,0,1,.92-8.66,6.93,6.93,0,1,1,9.81,9.8Z"></path><path class="cls-4" d="M468.47,297.39a3.22,3.22,0,0,0-2.5.77,2.68,2.68,0,0,0-2.11-1.92,3.14,3.14,0,0,0-2.39.69,3,3,0,0,0-2.22-1.85,3.22,3.22,0,0,0-2.69,1v-7.28a2.36,2.36,0,0,0-1.56-2.28,2.31,2.31,0,0,0-3.05,2.18v18.44a2.3,2.3,0,0,1-2.31-2.3v-2.08a.8.8,0,0,0-.8-.8h-.69a3.11,3.11,0,0,0-3.12,3.11v5.69a3.44,3.44,0,0,0,1.18,2.6l3.1,2.72a3.42,3.42,0,0,0,2.28.86h12.75a3.46,3.46,0,0,0,2.45-1l2.58-2.59a3.43,3.43,0,0,0,1-2.44V299.79A2.39,2.39,0,0,0,468.47,297.39Z"></path><circle class="cls-4" cx="446.07" cy="280.12" r="3.46"></circle><path class="cls-4" d="M437.52,278.39h-4.13a1.73,1.73,0,1,0,0,3.46h4.13a1.65,1.65,0,0,0,1.63-1.71v0A1.65,1.65,0,0,0,437.52,278.39Zm33.91,0H454.61A1.66,1.66,0,0,0,453,280.1v0a1.66,1.66,0,0,0,1.63,1.71h16.82a1.73,1.73,0,0,0,0-3.46Z"></path><circle class="cls-4" cx="443.57" cy="297.25" r="3.46"></circle><path class="cls-4" d="M435,295.52h-1.64a1.73,1.73,0,1,0,0,3.46H435a1.66,1.66,0,0,0,1.63-1.71v0A1.66,1.66,0,0,0,435,295.52Z"></path><circle class="cls-4" cx="453.92" cy="288.86" r="3.46"></circle><path class="cls-4" d="M445.38,287.13h-12a1.73,1.73,0,1,0,0,3.46h12a1.66,1.66,0,0,0,1.63-1.71v0A1.66,1.66,0,0,0,445.38,287.13Zm26.05,0h-9a1.65,1.65,0,0,0-1.63,1.71v0a1.65,1.65,0,0,0,1.63,1.71h9a1.73,1.73,0,1,0,0-3.46Z"></path></g></svg> 